<svg xmlns="http://www.w3.org/2000/svg" width="774" height="466" viewBox="0 0 387 233"><path d="M 372 182 L 371 183 L 369 183 L 368 184 L 367 184 L 365 186 L 365 188 L 364 189 L 364 193 L 365 194 L 365 195 L 366 196 L 367 196 L 369 198 L 371 198 L 372 199 L 376 199 L 377 200 L 378 200 L 379 201 L 379 202 L 377 204 L 372 204 L 369 201 L 364 201 L 364 205 L 368 209 L 370 209 L 371 210 L 378 210 L 379 209 L 381 209 L 385 205 L 385 202 L 386 201 L 385 200 L 385 198 L 384 197 L 384 196 L 383 195 L 382 195 L 381 194 L 378 194 L 377 193 L 374 193 L 373 192 L 372 192 L 371 191 L 371 189 L 372 188 L 377 188 L 379 190 L 384 190 L 385 189 L 385 188 L 384 187 L 384 186 L 382 184 L 381 184 L 380 183 L 378 183 L 377 182 Z" fill="black"/><path d="M 346 182 L 345 183 L 343 183 L 342 184 L 341 184 L 339 186 L 339 187 L 337 189 L 337 191 L 336 192 L 336 200 L 337 201 L 337 203 L 339 205 L 339 206 L 341 208 L 342 208 L 343 209 L 344 209 L 345 210 L 352 210 L 353 209 L 354 209 L 360 203 L 360 200 L 361 199 L 361 194 L 360 193 L 360 189 L 359 188 L 359 187 L 356 184 L 355 184 L 354 183 L 351 183 L 350 182 Z" fill="black"/><path d="M 305 182 L 304 183 L 301 183 L 300 184 L 299 184 L 298 183 L 293 183 L 293 209 L 294 209 L 295 210 L 298 210 L 299 209 L 299 192 L 303 188 L 306 188 L 310 192 L 310 209 L 311 210 L 314 210 L 315 209 L 316 209 L 316 189 L 315 188 L 315 187 L 314 186 L 314 185 L 313 184 L 312 184 L 311 183 L 309 183 L 308 182 Z" fill="black"/><path d="M 275 182 L 274 183 L 272 183 L 271 184 L 270 184 L 267 187 L 267 189 L 265 191 L 265 201 L 266 202 L 266 203 L 267 204 L 267 205 L 271 209 L 273 209 L 274 210 L 281 210 L 282 209 L 284 209 L 287 206 L 287 205 L 288 204 L 288 201 L 283 201 L 282 202 L 282 203 L 281 204 L 275 204 L 273 202 L 273 201 L 272 200 L 272 199 L 273 198 L 288 198 L 289 197 L 289 194 L 288 193 L 288 189 L 287 188 L 287 187 L 283 183 L 281 183 L 280 182 Z" fill="black"/><path d="M 236 182 L 235 183 L 233 183 L 231 185 L 230 184 L 230 183 L 225 183 L 225 209 L 226 210 L 229 210 L 230 209 L 230 193 L 231 192 L 231 191 L 233 189 L 234 189 L 235 188 L 237 188 L 240 191 L 240 209 L 241 209 L 242 210 L 245 210 L 246 209 L 246 191 L 249 188 L 252 188 L 254 190 L 254 191 L 255 192 L 255 209 L 256 209 L 257 210 L 260 210 L 261 209 L 261 189 L 260 188 L 260 186 L 257 183 L 255 183 L 254 182 L 251 182 L 250 183 L 248 183 L 247 184 L 246 184 L 245 185 L 244 185 L 242 183 L 240 183 L 239 182 Z" fill="black"/><path d="M 207 182 L 206 183 L 203 183 L 201 185 L 200 185 L 200 186 L 199 187 L 199 191 L 204 191 L 207 188 L 211 188 L 212 189 L 213 189 L 214 190 L 214 192 L 213 193 L 205 193 L 204 194 L 201 194 L 199 196 L 199 197 L 197 199 L 197 204 L 199 206 L 199 207 L 201 209 L 203 209 L 204 210 L 209 210 L 210 209 L 212 209 L 213 208 L 214 209 L 215 209 L 216 210 L 218 210 L 220 208 L 220 188 L 219 187 L 219 186 L 217 184 L 216 184 L 215 183 L 213 183 L 212 182 Z" fill="black"/><path d="M 178 182 L 177 183 L 175 183 L 174 184 L 173 184 L 171 186 L 171 187 L 170 188 L 170 189 L 169 190 L 169 191 L 168 192 L 168 198 L 169 199 L 169 201 L 170 202 L 170 203 L 171 204 L 171 205 L 174 208 L 175 208 L 176 209 L 175 210 L 171 210 L 170 211 L 170 213 L 171 214 L 171 215 L 172 215 L 175 218 L 187 218 L 190 215 L 191 215 L 191 214 L 192 213 L 192 212 L 193 211 L 193 183 L 188 183 L 187 184 L 186 184 L 185 183 L 183 183 L 182 182 Z" fill="black"/><path d="M 151 182 L 150 183 L 148 183 L 147 184 L 146 184 L 143 187 L 143 190 L 144 191 L 148 191 L 151 188 L 156 188 L 158 190 L 158 192 L 157 193 L 150 193 L 149 194 L 146 194 L 145 195 L 144 195 L 143 196 L 143 197 L 142 198 L 142 205 L 146 209 L 147 209 L 148 210 L 154 210 L 155 209 L 159 209 L 160 210 L 163 210 L 164 209 L 164 187 L 160 183 L 157 183 L 156 182 Z" fill="black"/><path d="M 323 176 L 322 177 L 322 182 L 321 183 L 319 183 L 318 184 L 318 187 L 319 188 L 321 188 L 322 189 L 322 205 L 324 207 L 324 208 L 325 209 L 327 209 L 328 210 L 332 210 L 334 208 L 334 205 L 333 204 L 330 204 L 328 202 L 328 189 L 329 188 L 333 188 L 334 187 L 334 184 L 333 183 L 329 183 L 328 182 L 328 177 L 327 176 Z" fill="black"/><path d="M 116 174 L 115 175 L 115 209 L 116 210 L 119 210 L 120 209 L 120 208 L 121 207 L 121 200 L 120 199 L 121 198 L 131 198 L 133 196 L 135 196 L 138 193 L 138 192 L 139 191 L 139 188 L 140 187 L 140 185 L 139 184 L 139 180 L 138 179 L 138 178 L 136 176 L 135 176 L 134 175 L 132 175 L 131 174 Z" fill="black"/><path d="M 203 44 L 202 45 L 201 45 L 199 47 L 199 48 L 197 50 L 197 127 L 198 128 L 198 129 L 202 133 L 305 133 L 306 132 L 307 132 L 308 131 L 308 129 L 309 128 L 309 127 L 310 126 L 310 51 L 309 50 L 309 49 L 308 48 L 308 47 L 306 45 L 305 45 L 304 44 Z" fill="black"/><path d="M 8 0 L 8 232 L 9 232 L 9 0 Z" fill="black"/></svg>