<svg xmlns="http://www.w3.org/2000/svg" width="774" height="466" viewBox="0 0 387 233"><path d="M 138 183 L 138 185 L 139 186 L 139 188 L 140 189 L 140 191 L 141 192 L 141 194 L 142 195 L 142 196 L 143 197 L 143 200 L 144 201 L 144 203 L 145 204 L 145 205 L 146 206 L 146 208 L 148 210 L 152 210 L 153 209 L 154 209 L 154 206 L 155 205 L 155 203 L 157 201 L 157 199 L 158 198 L 158 196 L 159 195 L 159 192 L 160 191 L 160 190 L 161 189 L 161 188 L 162 187 L 162 186 L 163 185 L 163 184 L 162 183 L 156 183 L 156 184 L 155 185 L 155 186 L 154 187 L 154 190 L 153 191 L 153 193 L 152 194 L 152 197 L 151 198 L 151 199 L 150 200 L 149 199 L 149 197 L 148 196 L 148 193 L 147 192 L 147 191 L 146 190 L 146 189 L 145 188 L 145 185 L 144 184 L 144 183 Z" fill="black"/><path d="M 198 182 L 197 183 L 195 183 L 194 184 L 193 184 L 192 185 L 192 186 L 191 187 L 191 195 L 192 196 L 193 196 L 195 198 L 197 198 L 198 199 L 201 199 L 202 200 L 204 200 L 205 201 L 205 202 L 203 204 L 198 204 L 195 201 L 190 201 L 190 204 L 191 205 L 191 206 L 194 209 L 196 209 L 197 210 L 204 210 L 205 209 L 206 209 L 207 208 L 208 208 L 211 205 L 211 198 L 210 197 L 210 196 L 209 195 L 208 195 L 207 194 L 204 194 L 203 193 L 199 193 L 196 190 L 198 188 L 202 188 L 203 189 L 204 189 L 205 190 L 211 190 L 211 188 L 210 187 L 210 186 L 208 184 L 207 184 L 206 183 L 204 183 L 203 182 Z" fill="black"/><path d="M 173 182 L 172 183 L 169 183 L 168 184 L 167 184 L 165 186 L 165 187 L 164 188 L 164 190 L 165 191 L 169 191 L 171 189 L 172 189 L 173 188 L 177 188 L 179 190 L 179 192 L 178 193 L 171 193 L 170 194 L 167 194 L 166 195 L 165 195 L 164 196 L 164 197 L 163 198 L 163 205 L 167 209 L 168 209 L 169 210 L 175 210 L 176 209 L 178 209 L 179 208 L 181 210 L 184 210 L 184 209 L 185 208 L 185 188 L 184 187 L 184 186 L 181 183 L 178 183 L 177 182 Z" fill="black"/><path d="M 132 182 L 131 183 L 130 183 L 129 184 L 128 184 L 127 183 L 122 183 L 121 184 L 121 208 L 123 210 L 126 210 L 128 208 L 128 192 L 129 191 L 129 190 L 130 189 L 132 189 L 133 188 L 134 189 L 135 189 L 136 188 L 136 183 L 135 182 Z" fill="black"/><path d="M 104 182 L 103 183 L 101 183 L 100 184 L 99 184 L 98 185 L 97 185 L 97 186 L 95 188 L 95 190 L 94 191 L 94 201 L 95 202 L 95 204 L 100 209 L 102 209 L 103 210 L 110 210 L 111 209 L 112 209 L 113 208 L 114 208 L 116 206 L 116 205 L 117 204 L 117 202 L 116 201 L 112 201 L 109 204 L 104 204 L 103 203 L 102 203 L 101 202 L 101 200 L 100 199 L 101 198 L 117 198 L 118 197 L 118 192 L 117 191 L 117 189 L 116 188 L 116 187 L 113 184 L 112 184 L 111 183 L 109 183 L 108 182 Z" fill="black"/><path d="M 78 182 L 77 183 L 75 183 L 74 184 L 73 184 L 71 186 L 71 187 L 70 188 L 70 193 L 71 194 L 71 195 L 72 196 L 73 196 L 75 198 L 77 198 L 78 199 L 81 199 L 82 200 L 84 200 L 85 201 L 85 202 L 83 204 L 77 204 L 74 201 L 70 201 L 70 205 L 71 206 L 71 207 L 72 208 L 73 208 L 74 209 L 75 209 L 76 210 L 83 210 L 84 209 L 86 209 L 90 205 L 90 204 L 91 203 L 91 199 L 90 198 L 90 197 L 87 194 L 84 194 L 83 193 L 79 193 L 76 190 L 78 188 L 82 188 L 83 189 L 84 189 L 85 190 L 90 190 L 90 187 L 86 183 L 83 183 L 82 182 Z" fill="black"/><path d="M 52 182 L 51 183 L 49 183 L 48 184 L 47 184 L 44 187 L 44 188 L 43 189 L 43 191 L 42 192 L 42 201 L 43 202 L 43 203 L 44 204 L 44 205 L 47 208 L 48 208 L 49 209 L 50 209 L 51 210 L 58 210 L 59 209 L 61 209 L 66 204 L 66 202 L 65 202 L 64 201 L 61 201 L 59 203 L 58 203 L 57 204 L 52 204 L 49 201 L 49 199 L 50 198 L 66 198 L 67 197 L 67 194 L 66 193 L 66 189 L 63 186 L 63 185 L 62 184 L 61 184 L 60 183 L 58 183 L 57 182 Z" fill="black"/><path d="M 15 174 L 14 175 L 14 209 L 15 210 L 18 210 L 20 208 L 20 197 L 21 196 L 26 196 L 28 198 L 28 200 L 29 201 L 29 202 L 31 204 L 31 205 L 32 206 L 32 207 L 33 208 L 33 209 L 34 209 L 35 210 L 39 210 L 39 206 L 38 205 L 38 204 L 37 203 L 37 202 L 36 201 L 36 200 L 34 198 L 34 197 L 33 196 L 38 191 L 38 187 L 39 186 L 39 184 L 38 183 L 38 180 L 37 179 L 37 178 L 35 176 L 34 176 L 33 175 L 31 175 L 30 174 Z" fill="black"/><path d="M 82 27 L 80 29 L 80 30 L 79 31 L 79 43 L 78 44 L 65 44 L 64 45 L 63 45 L 61 47 L 61 48 L 60 49 L 60 51 L 59 52 L 59 139 L 60 140 L 60 143 L 62 145 L 62 146 L 63 146 L 64 147 L 65 147 L 66 148 L 159 148 L 160 147 L 161 147 L 162 146 L 163 146 L 164 145 L 164 144 L 165 143 L 165 141 L 166 140 L 166 52 L 165 51 L 165 49 L 164 48 L 164 47 L 162 45 L 161 45 L 160 44 L 146 44 L 145 43 L 145 29 L 144 28 L 143 28 L 142 27 L 138 27 L 135 30 L 135 42 L 134 43 L 91 43 L 90 42 L 90 31 L 86 27 Z" fill="black"/><path d="M 355 0 L 355 232 L 356 232 L 356 0 Z" fill="black"/></svg>