<svg xmlns="http://www.w3.org/2000/svg" width="774" height="466" viewBox="0 0 387 233"><path d="M 299 165 L 269 195 L 269 196 L 268 197 L 268 203 L 269 204 L 281 204 L 284 201 L 284 200 L 285 199 L 286 199 L 308 177 L 308 172 L 301 165 Z" fill="black"/><path d="M 214 97 L 213 98 L 212 98 L 210 100 L 210 101 L 209 102 L 209 196 L 210 197 L 210 198 L 211 199 L 212 199 L 214 201 L 261 201 L 262 200 L 262 194 L 263 193 L 263 191 L 267 187 L 267 186 L 268 185 L 269 185 L 272 182 L 272 181 L 294 159 L 294 102 L 293 101 L 293 100 L 291 98 L 290 98 L 289 97 Z" fill="black"/><path d="M 9 66 L 9 67 L 8 68 L 8 232 L 9 232 Z" fill="black"/><path d="M 8 0 L 8 11 L 9 12 L 9 13 L 10 14 L 10 15 L 11 16 L 11 17 L 14 20 L 15 20 L 17 22 L 18 22 L 19 23 L 386 23 L 386 19 L 19 19 L 18 18 L 17 18 L 16 17 L 15 17 L 10 12 L 10 10 L 9 9 L 9 0 Z" fill="black"/></svg>