<svg xmlns="http://www.w3.org/2000/svg" width="774" height="466" viewBox="0 0 387 233"><path d="M 71 97 L 66 102 L 66 208 L 70 212 L 71 212 L 72 213 L 151 213 L 152 212 L 154 212 L 154 211 L 157 208 L 157 207 L 158 206 L 158 129 L 157 128 L 157 127 L 128 98 L 127 98 L 126 97 Z" fill="black"/><path d="M 354 63 L 354 64 L 355 65 L 355 232 L 356 232 L 356 67 L 355 66 L 355 65 L 354 64 Z" fill="black"/><path d="M 355 0 L 355 10 L 354 11 L 354 12 L 348 18 L 346 18 L 345 19 L 0 19 L 0 23 L 344 23 L 345 22 L 346 22 L 347 21 L 348 21 L 349 20 L 350 20 L 352 18 L 352 17 L 354 15 L 354 14 L 355 13 L 355 12 L 356 11 L 356 0 Z" fill="black"/></svg>